# xmcd
#
# Track frame offsets:
#	150
#	18720
#	35221
#	52352
#	68655
#	83319
#	100658
#	119015
#	134502
#	150905
#	169638
#	189913
#	205039
#	220217
#
# Disc length: 3201 seconds
#
# Revision: 0
# Processed by: cddbd v1.5.2PL0 Copyright (c) Steve Scherf et al.
# Submitted via: EZCDAudioConverter 3.1.4.1
#
DISCID=be0c7f0e
DTITLE=Andy and Lucas - Más de 10
DYEAR=2014
DGENRE=
TTITLE0=Silencio
TTITLE1=Echándote De Menos
TTITLE2=Aquí Sigo Yo
TTITLE3=Quiéreme
TTITLE4=Si Unas Palabras Bastan
TTITLE5=Y En Tu Ventana
TTITLE6=Son De Amores
TTITLE7=Besos
TTITLE8=Quiero Ser Tu Sueño
TTITLE9=Faldas
TTITLE10=Yo Lo Que Quiero
TTITLE11=De Qué Me Vale
TTITLE12=Tus Miradas
TTITLE13=Tanto La Quería
EXTD=
EXTT0=
EXTT1=
EXTT2=
EXTT3=
EXTT4=
EXTT5=
EXTT6=
EXTT7=
EXTT8=
EXTT9=
EXTT10=
EXTT11=
EXTT12=
EXTT13=
PLAYORDER=
